<svg width="58" height="56" viewBox="0 0 58 56" fill="none" xmlns="http://www.w3.org/2000/svg">
<path d="M26.0332 0.150394C24.1766 0.341801 22.2625 0.724613 20.5686 1.24141C14.7498 3.00235 9.76367 6.48594 5.97383 11.4434C1.52363 17.2525 -0.275587 24.6982 0.87285 32.6225C2.15527 41.5133 8.21328 49.4662 16.6543 53.3709C18.1568 54.06 20.827 54.9596 22.3965 55.3137C27.1625 56.3568 32.4357 56.1559 37.1156 54.7395C41.2691 53.4762 45.5854 50.9496 48.6191 47.9828C51.8252 44.8533 54.1795 41.1113 55.5385 36.977C56.6773 33.5316 57.2037 29.3877 56.9549 25.8945C56.7156 22.6406 56.0074 19.827 54.6102 16.6592C51.3658 9.29961 44.59 3.48086 36.5605 1.16485C33.9383 0.408794 32.1295 0.150394 29.1436 0.102543C27.8803 0.0834007 26.483 0.102543 26.0332 0.150394ZM26.0332 5.89258C26.1385 5.99786 26.2246 6.17012 26.2246 6.27539C26.2246 6.49551 25.9088 6.84961 25.6982 6.84961C25.4877 6.84961 25.1719 6.49551 25.1719 6.27539C25.1719 6.05528 25.4877 5.70118 25.6982 5.70118C25.7748 5.70118 25.9279 5.78731 26.0332 5.89258ZM33.1057 7.23243C33.3832 8.12246 33.8904 8.66797 34.6752 8.9168C34.9719 9.0125 35.2207 9.11777 35.2207 9.15606C35.2207 9.19434 34.991 9.29961 34.723 9.38575C34.4455 9.48145 34.0723 9.66328 33.8904 9.79727C33.5459 10.0557 33.1535 10.8022 33.0578 11.3668C33.0195 11.5678 32.9621 11.7305 32.9238 11.7305C32.8855 11.7305 32.8186 11.5678 32.7803 11.3668C32.608 10.4289 31.9477 9.625 31.182 9.4336C30.9523 9.37617 30.6844 9.29004 30.5791 9.25176L30.3877 9.16563L30.5791 9.09864C31.9668 8.61055 32.407 8.21817 32.6846 7.20372C32.7803 6.84961 32.8664 6.5625 32.8855 6.5625C32.8951 6.5625 33.0004 6.86876 33.1057 7.23243ZM20.2814 7.84492C20.6355 9.29004 21.4203 10.0748 22.9037 10.4481C23.2674 10.5342 23.5258 10.6395 23.4779 10.6777C23.4396 10.716 23.1908 10.8022 22.9229 10.8596C22.3008 11.0127 21.449 11.3955 21.1715 11.6635C20.8652 11.9506 20.5207 12.6397 20.3293 13.3766C20.1283 14.1135 20.0326 14.2379 19.9561 13.8742C19.7742 13.032 19.4967 12.3047 19.2383 11.9506C18.8937 11.4816 18.0707 11.0414 17.2094 10.8596C16.6064 10.7352 16.5107 10.6203 16.9223 10.5246C18.6353 10.1514 19.3531 9.5293 19.7646 8.0459C19.9943 7.21328 20.0039 7.19415 20.09 7.28985C20.1379 7.3377 20.224 7.58653 20.2814 7.84492ZM43.566 10.7256C45.5279 11.1371 48.0258 13.0607 49.4422 15.2236C50.9256 17.5014 51.7008 19.7982 51.7104 21.9229C51.7199 23.9709 51.05 25.3682 49.7197 26.0668C49.2795 26.3061 49.1551 26.3252 48.0449 26.3252C46.9252 26.3252 46.8008 26.3061 46.1117 26.0285C43.9297 25.1385 41.8529 23.0617 40.5609 20.4873C39.5561 18.4871 39.1158 16.8314 39.1063 15.0322C39.1063 13.4244 39.4699 12.2855 40.2355 11.5199C41.0682 10.6873 42.1687 10.4289 43.566 10.7256ZM12.8645 11.874C12.941 12.2855 13.4482 12.8119 13.8789 12.9363C14.3096 13.0607 14.3287 13.1947 13.9268 13.3479C13.3621 13.5488 13.0367 13.9029 12.8645 14.4676C12.7879 14.7547 12.7018 14.9844 12.6826 14.9844C12.6635 14.9844 12.5773 14.7547 12.5008 14.4771C12.3094 13.8359 11.917 13.4627 11.2088 13.2617L10.96 13.1947L11.2853 13.0129C12.0414 12.5822 12.2137 12.4291 12.4434 11.9506C12.5678 11.6826 12.7018 11.4721 12.74 11.5008C12.7783 11.5199 12.8357 11.6922 12.8645 11.874ZM28.7225 14.1326C29.1723 14.3719 29.134 15.1184 28.665 15.2332C28.4832 15.2811 28.3588 15.2428 28.177 15.0705C27.8803 14.793 27.8803 14.5633 28.1865 14.2666C28.4545 13.9986 28.4641 13.9891 28.7225 14.1326ZM36.4553 18.6307C36.5127 18.8986 36.551 19.1379 36.5414 19.1379C36.4744 19.1762 34.7135 20.2481 31.6318 22.143C29.7943 23.2818 27.3061 24.8035 26.1098 25.5404C24.1287 26.7463 23.9373 26.8898 24.033 27.0525C24.0904 27.1578 24.1861 27.2631 24.2531 27.2918C24.368 27.3301 36.6084 21.2434 36.9051 21.0041C36.9816 20.9371 37.1156 21.1285 37.3453 21.607C37.5271 21.9898 37.8812 22.6406 38.1205 23.0522C38.5799 23.8178 38.6373 23.9805 38.4842 23.9805C38.4268 23.9805 37.8812 24.258 37.2592 24.5834C36.6371 24.9184 35.0963 25.7223 33.833 26.3731C32.5697 27.0143 30.7227 27.9617 29.7178 28.4785C28.7225 28.9953 26.7797 29.9811 25.4111 30.6797C24.0426 31.3783 22.8846 31.9908 22.8271 32.0291C22.7027 32.1535 23.6502 33.101 24.3584 33.5699C24.6646 33.7709 25.2293 34.0293 25.593 34.1441C26.2055 34.326 26.2437 34.3547 26.0236 34.4408C25.8992 34.4887 25.5164 34.5365 25.1719 34.5365C23.1047 34.5365 21.0088 32.4885 20.0518 29.5313C19.6977 28.4307 19.6211 26.8803 19.8795 26.0381C20.0613 25.4639 20.0613 25.4639 20.9609 24.9088C21.4586 24.6025 22.8654 23.7795 24.0713 23.0809C25.2867 22.3822 28.3875 20.5926 30.9619 19.1092C33.5459 17.6162 35.7854 16.3242 35.9385 16.2381L36.2256 16.0754L36.283 17.0994C36.3213 17.6641 36.3979 18.3531 36.4553 18.6307ZM9.97422 17.6354C10.2326 17.865 10.1943 18.2957 9.89766 18.4967C9.61055 18.6785 9.41914 18.602 9.19902 18.2191C9.07461 17.999 9.07461 17.9416 9.21816 17.7215C9.40957 17.4344 9.71582 17.3961 9.97422 17.6354ZM19.7742 18.9656C19.9656 19.2432 19.8795 19.626 19.5924 19.8078C19.3436 19.9705 18.9129 19.693 18.8746 19.3484C18.8076 18.7742 19.468 18.4967 19.7742 18.9656ZM14.9699 22.277C15.1709 22.5641 15.1613 22.7938 14.9316 23.0234C14.5775 23.3775 14.0703 23.167 14.0703 22.6693C14.0703 22.1238 14.6828 21.8654 14.9699 22.277ZM8.90234 24.191C8.91191 24.4877 9.21816 25.1385 9.44785 25.3395C9.55312 25.4352 9.80195 25.5691 10.0125 25.6361C10.4623 25.7988 10.491 25.9902 10.0986 26.1147C9.44785 26.3252 8.90234 26.9377 8.90234 27.4641C8.90234 27.8086 8.73008 27.866 8.65351 27.5502C8.48125 26.8229 7.95488 26.2869 7.16055 26.0477C6.87344 25.9615 6.96914 25.8467 7.5625 25.5787C8.14629 25.3012 8.50996 24.8705 8.66308 24.2389C8.74922 23.923 8.90234 23.8943 8.90234 24.191ZM17.6687 28.3063C17.6687 29.3111 17.7166 29.7322 17.8793 30.3256C18.4727 32.4311 19.8986 34.4121 21.5447 35.4361L22.1381 35.7998L21.3342 36.173C20.3197 36.6516 19.8603 36.6611 19.0182 36.2496C16.4437 34.9672 14.8168 31.1008 15.8121 28.6125C16.0418 28.0383 16.1949 27.8852 17.2285 27.3014C17.4678 27.1674 17.6592 27.0525 17.6592 27.0525C17.6592 27.043 17.6687 27.6172 17.6687 28.3063ZM50.0547 30.2012C50.2174 30.5074 50.1312 30.8998 49.8728 31.0242C49.3656 31.2826 48.9158 30.7371 49.2316 30.2586C49.4326 29.9428 49.9016 29.9141 50.0547 30.2012ZM45.1643 31.2252C45.3174 31.7803 45.6619 32.1535 46.2936 32.4502C46.5807 32.5938 46.7816 32.7373 46.7434 32.7756C46.6955 32.8139 46.4467 32.9287 46.1978 33.0148C45.6523 33.2158 45.2025 33.7613 45.1164 34.3356C45.0398 34.8141 44.9154 34.7949 44.7814 34.2877C44.5996 33.5891 44.0541 33.0818 43.2406 32.8426C42.9535 32.7564 43.0492 32.632 43.4895 32.4598C43.9775 32.2684 44.657 31.5793 44.7432 31.1869C44.8867 30.5361 44.9633 30.5457 45.1643 31.2252ZM13.9172 32.6607C14.0895 33.5125 14.4148 34.2111 15.0752 35.1299L15.592 35.8381L15.0943 36.1156C14.8168 36.2688 14.2139 36.6037 13.7353 36.8525C13.2664 37.1014 12.8549 37.3311 12.8357 37.3502C12.807 37.3598 12.8932 37.4938 13.0271 37.6277L13.2568 37.8766L12.8357 37.666C11.4193 36.9578 10.3475 34.6322 10.9217 33.5412C11.0461 33.3115 13.7066 31.7898 13.7545 31.9238C13.7641 31.9525 13.8406 32.2779 13.9172 32.6607ZM33.8809 33.1775C34.991 33.79 35.4313 35.1873 34.8762 36.307C34.101 37.867 32.0625 38.1158 30.8758 36.8047C30.4164 36.2975 30.2441 35.8859 30.2441 35.2926C30.2441 34.5557 30.4834 33.991 31.0098 33.5221C31.5936 32.9957 31.9381 32.8809 32.7898 32.9191C33.2875 32.9383 33.5746 33.0053 33.8809 33.1775ZM9.09375 34.2207C8.89277 35.6084 9.40957 37.0439 10.5006 38.1445C10.8643 38.4986 11.3428 38.8814 11.582 39.0059L12.0031 39.226L11.1992 39.6088C10.2326 40.0682 9.83066 40.0969 9.13203 39.7428C7.49551 38.9102 6.45234 36.1443 7.3041 34.8811C7.4668 34.6418 9.07461 33.5221 9.16074 33.5891C9.17031 33.5986 9.1416 33.8857 9.09375 34.2207ZM38.9627 37.5703C42.8004 37.7522 46.7051 38.3455 49.7963 39.2164C50.6098 39.4461 51.2031 39.6566 51.2031 39.7236C51.2031 39.915 50.0355 41.7908 49.3752 42.6617C47.4803 45.1691 45.3939 47.198 42.9439 48.9016C42.073 49.5045 41.8242 49.6289 41.8242 49.4471C41.8242 49.3992 41.4414 48.6432 40.982 47.7531C39.6996 45.3223 37.307 40.5754 36.551 39.0059L35.8906 37.6182L36.1586 37.5607C36.5414 37.465 36.9051 37.465 38.9627 37.5703ZM28.3875 38.202C28.3588 38.2881 28.0812 38.6996 27.7654 39.1303C27.1721 39.9629 26.1385 41.4272 24.5115 43.7527C23.9564 44.5375 23.1812 45.6285 22.7793 46.1836C22.3869 46.7387 21.3916 48.1264 20.5877 49.2652C19.7742 50.4137 19.066 51.3516 19.0086 51.3516C18.798 51.342 16.4916 50.1361 15.525 49.5332C13.9842 48.5666 12.3189 47.265 11.0365 46.04C10.3857 45.4275 9.85937 44.8916 9.85937 44.8629C9.85937 44.8246 10.2613 44.5566 10.7494 44.26C15.2953 41.4846 20.2527 39.6279 26.416 38.3838C28.2727 38.0105 28.4736 37.9914 28.3875 38.202ZM31.8232 38.9102C31.9381 38.9102 31.9572 40.0586 31.9381 45.9156L31.9189 52.9211L31.5361 53.0168C31.3256 53.0647 30.0814 53.1029 28.7607 53.1029C26.7988 53.1125 26.1002 53.0742 24.8848 52.902C23.1238 52.6531 21.8701 52.3852 21.8797 52.2703C21.8797 52.2225 22.3199 51.5813 22.8559 50.8348C24.99 47.8584 28.7607 42.5564 29.1244 42.0205C30.2729 40.3266 31.4404 38.8145 31.5648 38.8623C31.6318 38.891 31.7563 38.9102 31.8232 38.9102ZM36.6754 45.5137C37.2018 46.5377 38.0439 48.1742 38.5416 49.1408C39.0393 50.1074 39.4125 50.9209 39.3646 50.9688C39.1637 51.141 35.1346 52.5 34.8092 52.5C34.7709 52.5 34.7422 50.0979 34.7422 47.1598V41.8291L35.2303 42.7383C35.4982 43.2359 36.149 44.4897 36.6754 45.5137Z" fill="white"/>
<path d="M42.7813 13.1852C42.0731 13.3861 41.5754 13.9603 41.3649 14.8121C40.9438 16.4965 41.8434 19.2049 43.5469 21.3391C44.5326 22.5736 45.5662 23.3201 46.7912 23.6551C47.6047 23.8848 48.2842 23.7316 48.868 23.1957C49.4518 22.6598 49.624 22.143 49.624 20.9658C49.624 19.8078 49.3656 18.7646 48.801 17.6258C47.9492 15.9223 47.0783 14.86 45.8342 14.0369C44.5996 13.2043 43.633 12.9363 42.7813 13.1852Z" fill="white"/>
<path d="M32.1965 34.3164C31.8711 34.4408 31.6797 34.7949 31.6797 35.2543C31.6797 35.6084 31.7371 35.7328 32.0146 36.0103C32.3209 36.3166 32.3879 36.3453 32.7611 36.2975C33.2396 36.2305 33.7852 35.7137 33.7852 35.3213C33.7852 34.5461 32.943 34.0102 32.1965 34.3164Z" fill="white"/>
</svg>
